<mxfile host="app.diagrams.net" modified="2023-11-01T06:48:46.126Z" agent="Mozilla/5.0 (Windows NT 10.0; Win64; x64) AppleWebKit/537.36 (KHTML, like Gecko) Chrome/119.0.0.0 Safari/537.36" etag="Ih6u-8iUYKI3yIMQ9tWw" version="22.0.8" type="device">
  <diagram name="第 1 页" id="yWnSMLx2YASjpVwfyTjn">
    <mxGraphModel dx="1050" dy="574" grid="1" gridSize="10" guides="1" tooltips="1" connect="1" arrows="1" fold="1" page="1" pageScale="1" pageWidth="827" pageHeight="1169" math="0" shadow="0">
      <root>
        <mxCell id="0" />
        <mxCell id="1" parent="0" />
        <mxCell id="vW-GbOlptPiRvGHnjnbA-3" value="" style="edgeStyle=orthogonalEdgeStyle;rounded=0;orthogonalLoop=1;jettySize=auto;html=1;" edge="1" parent="1" source="vW-GbOlptPiRvGHnjnbA-1" target="vW-GbOlptPiRvGHnjnbA-2">
          <mxGeometry relative="1" as="geometry" />
        </mxCell>
        <mxCell id="vW-GbOlptPiRvGHnjnbA-5" value="" style="edgeStyle=orthogonalEdgeStyle;rounded=0;orthogonalLoop=1;jettySize=auto;html=1;" edge="1" parent="1" source="vW-GbOlptPiRvGHnjnbA-1" target="vW-GbOlptPiRvGHnjnbA-4">
          <mxGeometry relative="1" as="geometry" />
        </mxCell>
        <mxCell id="vW-GbOlptPiRvGHnjnbA-1" value="导出插件" style="rounded=1;whiteSpace=wrap;html=1;fontSize=16;" vertex="1" parent="1">
          <mxGeometry x="370" y="200" width="120" height="60" as="geometry" />
        </mxCell>
        <mxCell id="vW-GbOlptPiRvGHnjnbA-2" value="导出配置" style="rounded=1;whiteSpace=wrap;html=1;fontSize=16;" vertex="1" parent="1">
          <mxGeometry x="570" y="200" width="120" height="60" as="geometry" />
        </mxCell>
        <mxCell id="vW-GbOlptPiRvGHnjnbA-4" value="后台导出" style="rounded=1;whiteSpace=wrap;html=1;fontSize=16;" vertex="1" parent="1">
          <mxGeometry x="370" y="340" width="120" height="60" as="geometry" />
        </mxCell>
      </root>
    </mxGraphModel>
  </diagram>
</mxfile>
